<svg width="191" height="44" viewBox="0 0 191 44" fill="none" xmlns="http://www.w3.org/2000/svg">
<path fill-rule="evenodd" clip-rule="evenodd" d="M182.614 12.8263H178.62H178.6V30.7854H182.594L182.573 23.5639H183.517L185.821 30.7854H190.5L186.954 21.3489L190.053 12.8263H185.732L183.458 19.2729H182.594L182.614 12.8263ZM169.134 12.8263H165.161V30.7854H169.134V23.5839H171.975V30.7854H175.938V12.8263H171.975V19.3027H169.134V12.8263ZM155.456 30.8152H151.324L154.82 12.8561H159.946L163.423 30.8152H159.29L158.794 27.706H155.953L155.456 30.8152ZM158.138 23.7626L157.383 18.2994L156.609 23.7626H158.138ZM145.076 30.7854H140.239L140.249 12.8263H149.595V17.1373H144.212V19.5212H144.937C147.142 19.5212 150.549 20.3159 150.549 24.885C150.53 30.3284 146.129 30.7854 145.076 30.7854ZM144.202 23.117V27.1796H144.788C145.275 27.1796 146.546 26.8717 146.546 24.9943C146.546 23.1368 145.285 23.117 144.788 23.117H144.202ZM127.932 12.8263H124.475V30.7854H128.537V19.8391L130.981 22.9679L133.425 19.8391V30.7854H137.488V12.8263H134.061L130.981 17.0677L127.932 12.8263ZM122.518 21.7859C122.518 26.375 120.899 31.0039 116.082 31.0039C111.274 31.0039 109.644 26.385 109.644 21.7859C109.644 17.1869 111.264 12.568 116.082 12.568C120.899 12.568 122.518 17.1968 122.518 21.7859ZM113.916 21.7859C113.916 24.9348 114.651 26.6432 116.082 26.6432C117.522 26.6531 118.237 24.9446 118.237 21.7859C118.237 18.6273 117.522 16.9187 116.082 16.9187C114.641 16.9187 113.916 18.6371 113.916 21.7859ZM101.947 30.7854H97.8845V12.8263H103.308C107.142 12.8263 108.572 16.4917 108.572 18.7961C108.572 21.1602 107.32 24.8652 103.308 24.8652H101.947V30.7854ZM102.91 16.7796H101.947V20.9118H102.91C103.417 20.9118 104.41 20.7727 104.41 18.8458C104.41 17.3558 103.824 16.7796 102.91 16.7796ZM95.5499 12.8263H84.4644V30.7854H88.5271V17.1671H91.4872V30.7854H95.5499V12.8263ZM77.9881 18.0312C77.9881 19.3523 76.7862 19.7893 76.1306 19.7893H74.3725V23.6434H76.0213C77.402 23.6434 78.0377 24.3188 78.0377 25.332C78.0377 26.0472 77.5212 27.0406 76.21 27.0406C75.4353 27.0406 74.6606 26.9908 73.5082 26.4842L73.4387 30.2192C74.6804 30.9144 75.7234 31.1329 77.2928 31.1529C80.2529 31.1529 82.5573 29.2754 82.5573 25.8784C82.5573 23.1368 80.968 21.9547 79.7661 21.5674V21.3985C81.0077 20.8721 82.2792 19.5014 82.2792 17.2366C82.2792 14.9023 80.7991 12.5184 77.4616 12.5184C76.2896 12.5184 75.2962 12.6177 73.9155 12.9753L73.9652 16.879C74.8393 16.4519 75.7332 16.3724 76.2001 16.3724C76.6073 16.3724 77.9881 16.4717 77.9881 18.0312ZM64.2705 30.7854H60.1582C60.1582 30.7854 63.6347 12.8263 63.6447 12.8263H68.7602L72.2369 30.7854H68.1246L67.6278 27.6762H64.787L64.2705 30.7854ZM66.9624 23.7328L66.1876 18.2497L65.4128 23.7328H66.9624ZM60.625 12.8263H52.2912V30.7854H56.4234V17.3062H60.625V12.8263ZM21.131 42.0594C10.3238 42.0594 1.53301 33.06 1.53301 22.0144C1.53301 10.939 10.3139 1.93963 21.131 1.94955C31.9183 1.94955 40.6991 10.9489 40.6991 22.0144C40.6991 33.06 31.9183 42.0594 21.131 42.0594ZM21.131 0.886719C9.74766 0.886719 0.5 10.3628 0.5 22.0144C0.5 33.646 9.74766 43.1122 21.131 43.1122C32.4845 43.1122 41.7323 33.646 41.7323 22.0144C41.7323 10.353 32.4845 0.886719 21.131 0.886719ZM12.9559 9.84608C13.5816 9.38913 14.257 8.9918 14.9722 8.6739C16.5218 7.93884 19.015 7.22373 22.1141 7.19392H22.5512C25.2033 7.24356 28.3522 8.18727 30.2791 10.1341C30.6069 10.5414 30.7957 10.9486 30.8652 11.2665C32.3949 12.0611 33.2789 12.806 33.7756 13.6703C33.9941 14.1371 34.0637 14.6537 33.9643 15.1603C34.6 15.5476 34.908 15.8854 35.2357 16.3224C35.4344 16.68 35.6033 17.0872 35.6529 17.4548C35.7225 17.9315 35.7721 18.4878 35.2754 19.1335C35.8019 19.3917 36.2191 20.1367 36.2688 20.4546C36.527 21.6367 35.7721 22.7889 34.8086 23.6828C33.6762 24.686 31.183 25.8979 29.1667 26.4243C26.3162 27.1618 23.6936 27.5955 21.4 27.9748C20.4804 28.1269 19.6137 28.2702 18.8064 28.4208C20.0779 28.7387 21.7864 29.146 24.5874 29.146C30.5771 29.146 35.8616 26.2554 35.8616 26.2554C35.8616 26.2554 35.7423 26.623 35.6231 26.9607C31.8187 29.3149 25.7794 30.2983 23.1969 30.1791C20.5943 30.0598 18.3893 29.6526 16.2239 28.9772C15.5683 29.1759 14.9126 29.3944 14.277 29.6526C17.5648 31.1922 20.0481 31.53 22.8492 31.7485C25.7099 31.967 30.458 31.2717 34.451 29.7817C34.36 29.8727 34.2921 29.9867 34.2251 30.0994C34.153 30.2205 34.0819 30.3399 33.9841 30.4274C31.9379 31.5399 27.6171 32.6424 25.4317 32.7418C23.2763 32.8411 20.644 32.7418 18.3395 32.3047C16.3728 31.9075 14.7438 31.2717 13.0551 30.5068C12.7572 30.7353 12.6082 31.0333 12.5386 31.3711C19.1442 34.9072 25.2927 34.9767 32.3253 32.7418L31.6896 33.3676C23.9518 36.5958 17.9224 35.3442 13.2438 33.0299C13.2121 33.016 13.1792 33.0021 13.1457 32.988C13.0115 32.9313 12.8685 32.871 12.7572 32.7914C13.2042 33.5663 16.7701 36.2383 20.7632 36.576C23.5146 36.8243 26.8721 36.3376 28.8686 35.523L27.6965 36.1489C26.733 36.6356 24.1802 37.7381 20.6043 37.4998C15.8364 37.162 13.1644 34.9966 11.9625 33.8642C11.3963 33.3378 11.148 32.7318 10.9792 31.9869C9.8964 31.4107 9.21109 30.8049 8.65487 29.891C8.327 29.3944 8.39659 28.7884 8.46605 28.2818L8.61509 27.8548L8.59961 27.8432C8.08765 27.4592 7.55019 27.056 7.34363 26.6528C6.86685 25.7787 7.15494 25.0337 7.48269 24.4576C7.20457 24.1198 6.93643 23.7821 6.82707 23.4444C6.68801 23.067 6.66818 22.6697 6.70796 22.2425C6.79738 21.5174 7.17477 20.842 7.67138 20.2658C8.7045 19.0341 10.3533 18.0706 13.1446 17.1369C15.2497 16.4149 16.3896 16.1639 17.7343 15.8679C18.1472 15.777 18.5794 15.6818 19.0647 15.5675C19.9711 15.3557 20.9429 15.1954 21.9306 15.0324C23.5838 14.7596 25.2816 14.4794 26.7926 13.9384C20.0481 12.7366 13.0551 13.849 7.34363 17.8621L7.72114 16.7297C12.8366 13.3126 18.4985 11.2963 28.0839 13.0047C28.6005 12.6869 28.9084 12.379 29.0474 11.7532C26.6536 10.8691 24.0412 10.5513 20.6838 10.601C17.674 10.7003 12.2506 11.8525 9.34017 13.6107L10.2341 12.4683C12.2506 11.2366 17.535 9.62747 21.5082 9.558C24.2995 9.48841 25.7298 9.65727 29.0673 10.5712C28.7726 10.0197 28.1412 9.72311 27.1992 9.28065C27.157 9.26083 27.1142 9.24072 27.0707 9.22027C23.8524 7.75015 17.8627 7.61109 12.9559 9.84608ZM30.6864 12.4783C30.597 12.816 30.2493 13.2233 30.011 13.4915C30.7361 13.6802 31.491 13.9683 32.1862 14.2365C32.0968 13.5611 31.3519 12.9154 30.6864 12.4783ZM29.6249 16.1296C29.9453 16.2288 30.2655 16.3279 30.597 16.4217C30.602 16.4268 30.607 16.4293 30.612 16.4318C30.6169 16.4342 30.6219 16.4367 30.6268 16.4416C30.8751 16.4416 31.6797 15.6767 31.8187 15.4682C31.0142 15.1007 30.0308 14.7431 28.9779 14.455C28.5111 14.8424 27.9747 15.1701 27.1701 15.488C28.094 15.656 28.8602 15.8931 29.6249 16.1296ZM33.4875 16.4516C33.2292 16.7595 32.9511 17.0276 32.6432 17.2661C32.7619 17.3242 32.8781 17.3781 32.9924 17.4311C33.3467 17.5956 33.6811 17.7507 34.0041 17.9911C34.312 17.3853 34.1232 17.0078 33.4875 16.4516ZM13.837 18.7042C12.4372 19.1348 6.83181 20.8591 8.51569 23.2359C8.51721 23.2359 8.52469 23.2272 8.53895 23.2108C8.7116 23.0119 9.8787 21.6671 13.5121 20.5937C16.0831 19.8187 18.7232 19.3253 21.406 18.8238C23.8124 18.374 26.2533 17.9178 28.7097 17.2462C26.6932 16.6999 25.5609 16.4516 23.4253 16.7197C20.3262 17.1072 16.8893 17.7726 13.9591 18.6666C13.923 18.6778 13.8822 18.6903 13.837 18.7042ZM16.7403 21.6267C15.3796 21.9346 11.6446 22.8285 9.8071 24.4179C10.1403 24.6935 10.395 24.8326 10.6831 24.9899C10.8416 25.0765 11.0102 25.1686 11.2076 25.292C11.9625 24.7854 12.9955 24.3086 14.5253 23.8914C16.9068 23.2378 18.7718 22.9232 20.8696 22.5693C21.0992 22.5305 21.3317 22.4913 21.5679 22.4512C23.9418 22.0836 28.4316 21.1201 30.895 20.2062C31.7194 19.9182 32.4743 19.5307 33.0107 19.0739C32.8518 18.8851 31.2525 18.0905 31.2029 18.16C30.2195 18.6468 28.809 19.1235 26.7926 19.6301C26.0231 19.8271 24.7489 20.062 23.1735 20.3525C21.3322 20.6921 19.0796 21.1074 16.7403 21.6267ZM15.6477 25.5303C14.8332 25.739 13.9889 26.0071 13.214 26.3449C13.9493 26.7314 14.7472 27.0731 15.5398 27.4125C15.5824 27.4308 15.625 27.449 15.6675 27.4673C17.3661 26.9607 18.1608 26.7422 20.6043 26.335C22.5611 25.9773 24.518 25.5999 26.4747 25.2026C30.2195 24.3781 35.6927 22.6001 34.2325 20.2858C34.174 20.3339 34.1155 20.3797 34.0574 20.4252C33.9479 20.5109 33.8397 20.5955 33.7358 20.6929C32.6332 21.5571 30.8652 22.2525 28.4514 22.908C25.6551 23.6817 23.2861 24.0834 21.0228 24.4671C19.2182 24.7731 17.4808 25.0677 15.6477 25.5303ZM8.90865 25.6823C8.87763 25.6618 8.84606 25.641 8.81375 25.6198C8.63492 26.0568 9.01242 26.5337 9.37995 26.7522C9.47931 26.6466 9.59813 26.5526 9.71451 26.4606C9.78423 26.4055 9.85308 26.3511 9.91635 26.2952C9.50763 26.0772 9.24001 25.9007 8.90865 25.6823ZM11.6348 27.1892C11.3069 27.4077 11.009 27.6163 10.7705 27.8348C11.1992 28.092 11.6339 28.3431 12.0747 28.5976C12.1958 28.6675 12.3173 28.7377 12.4393 28.8083C12.8565 28.5401 13.2936 28.3216 13.7504 28.1527C13.4641 28.0199 13.1708 27.8888 12.8749 27.7565C12.4626 27.5723 12.0453 27.3858 11.6348 27.1892ZM11.3565 29.7023C10.9494 29.4936 10.552 29.2751 10.1547 29.007C10.1348 29.4738 10.413 29.8811 11.009 30.3777C11.0686 30.1294 11.1877 29.9406 11.3565 29.7023Z" fill="white"/>
</svg>
