<svg width="191" height="30" viewBox="0 0 191 30" fill="none" xmlns="http://www.w3.org/2000/svg">
<path d="M85.4724 9.35035L89.4835 6.39479H76.1835V23.917H89.4835V20.9615H79.9835V16.5281H88.0057V13.5726H79.9835V9.35035H85.4724ZM68.9001 9.35035L72.9112 6.39479H57.7112V23.917H65.6279C70.0612 23.917 72.5946 21.9115 72.5946 18.4281C72.5946 15.0504 70.2723 13.2559 66.0501 13.2559H61.4057V9.35035H68.9001ZM65.5223 16.1059C67.9501 16.1059 69.0057 16.9504 69.0057 18.5337C69.0057 20.117 67.8446 20.9615 65.5223 20.9615H61.5112V16.1059H65.5223ZM100.145 6.39479H92.9668V23.917H96.7668V18.9559H100.25C104.895 18.9559 107.745 16.5281 107.745 12.6226C107.745 8.71702 104.789 6.39479 100.145 6.39479ZM100.145 16.0003H96.7668V9.24479H100.145C102.572 9.24479 103.945 10.4059 103.945 12.6226C103.839 14.8392 102.572 16.0003 100.145 16.0003ZM51.2723 20.117C50.2168 20.6448 49.1612 20.9615 48.0001 20.9615C44.6223 20.9615 42.089 18.5337 42.089 15.1559C42.089 11.7781 44.5168 9.35035 48.0001 9.35035C49.2668 9.35035 50.4279 9.77257 51.4834 10.4059L54.2279 8.40035L54.0168 8.18924C52.4334 6.81701 50.3223 6.07812 47.8946 6.07812C45.2557 6.07812 42.9334 6.92257 41.139 8.61146C39.4501 10.3003 38.3946 12.6226 38.5001 15.0504C38.5001 17.4781 39.4501 19.8004 41.139 21.5948C42.9334 23.2837 45.3612 24.2337 47.789 24.1281C50.5334 24.1281 52.8557 23.1781 54.5446 21.4892L52.1168 19.6948L51.2723 20.117ZM165.167 13.5726H157.039V6.39479H153.239V23.917H157.039V16.7392H165.167V23.917H168.967V6.39479H165.167V13.5726ZM139.517 6.39479L131.917 23.917H135.717L137.195 20.4337H145.217L146.695 23.917H150.706L143.317 6.39479H139.517ZM138.461 17.4781L141.417 10.4059L144.161 17.4781H138.461ZM182.689 14.8392L189.55 6.39479H185.222L179.522 13.8892H177.411V6.39479H173.611V23.917H177.411V16.8448H179.839L185.645 23.917H190.5L182.689 14.8392ZM124 13.2559H119.356V9.35035H129.278V6.39479H115.556V23.917H123.472C127.906 23.917 130.439 21.9115 130.439 18.4281C130.545 15.0504 128.222 13.2559 124 13.2559ZM123.367 21.067H119.356V16.2115H123.367C125.795 16.2115 126.85 17.0559 126.85 18.6392C126.956 20.2226 125.689 21.067 123.367 21.067Z" fill="white"/>
<path d="M23.9841 3.62215L21.1793 5.71734C19.4911 4.54355 17.5173 3.87088 15.4797 3.76893L15.4796 3.77196C15.296 3.76278 15.1115 3.75588 14.9257 3.75588C13.4688 3.75496 12.0262 4.04588 10.6807 4.61193C9.33525 5.17797 8.11343 6.00799 7.08554 7.05422L7.08416 7.05282C6.12011 8.02717 5.34061 9.17467 4.78633 10.4385C4.1568 11.8739 3.83184 13.4274 3.83253 14.9982H0.499826C0.497587 12.9548 0.919174 10.9338 1.73724 9.06618C2.49505 7.33618 3.57738 5.77361 4.92258 4.46467C6.2188 3.19808 7.73875 2.18875 9.40386 1.48995C11.1532 0.755806 13.0282 0.378834 14.9216 0.380631V0.378929C18.2204 0.373066 21.4205 1.51832 23.9841 3.62215Z" fill="white"/>
<path d="M14.3706 26.2274C13.0107 26.1587 11.6733 25.8361 10.426 25.2744C9.00956 24.6365 7.74103 23.704 6.70265 22.5377L4.22862 24.8062C5.57944 26.3231 7.22976 27.5352 9.07257 28.3641C10.9154 29.1929 12.9095 29.62 14.9257 29.6176C16.8197 29.6196 18.6953 29.2421 20.4449 28.5073C21.9737 27.8652 23.3798 26.9611 24.6026 25.8364L24.6051 25.8392C26.1015 24.47 27.2974 22.7974 28.1151 20.9299C28.9328 19.0623 29.354 17.0413 29.3515 14.9981C29.3533 14.1198 29.2775 13.243 29.1249 12.3783L26.0199 14.6973V14.9981C26.0207 16.569 25.6958 18.1225 25.0663 19.5579C24.5116 20.8226 23.7314 21.9708 22.7664 22.9454L22.7648 22.9438C21.7367 23.9895 20.515 24.819 19.1698 25.3849C17.8246 25.9507 16.3823 26.2417 14.9257 26.241L14.8297 26.2409C14.694 26.2397 14.5585 26.2361 14.4231 26.2299L14.3939 26.2278L14.3707 26.226L14.3706 26.2274Z" fill="white"/>
<path d="M28.07 8.96589C27.6067 7.93241 27.0266 6.95693 26.3413 6.05905L14.9295 14.5855L9.43768 11.0967V15.294L14.9295 18.7829L28.07 8.96589Z" fill="white"/>
<path d="M3.83252 14.9976C3.83252 14.8093 3.83705 14.6222 3.84611 14.4362L0.517943 14.2709C0.506615 14.512 0.499821 14.7554 0.499821 15.001C0.498405 16.9204 0.870923 18.8211 1.59602 20.5941C2.3211 22.3673 3.38448 23.9778 4.72516 25.3334L7.08592 22.9421C6.05391 21.9004 5.23522 20.6623 4.67689 19.2989C4.11856 17.9355 3.8316 16.4737 3.83252 14.9976Z" fill="white"/>
</svg>
