<?xml version="1.0" encoding="utf-8"?>
<!-- Generator: Adobe Illustrator 27.1.1, SVG Export Plug-In . SVG Version: 6.00 Build 0)  -->
<svg version="1.1" id="Layer_1" xmlns="http://www.w3.org/2000/svg" xmlns:xlink="http://www.w3.org/1999/xlink" x="0px" y="0px"
	 viewBox="0 0 249.89 59.57" style="enable-background:new 0 0 249.89 59.57;" xml:space="preserve">
<style type="text/css">
	.st0{fill:#B38A6B;}
	.st1{fill:#BB2028;}
</style>
<g>
	<g>
		<path class="st0" d="M241.25,46.4c-0.52-0.02-1.03-0.06-1.54-0.1c-0.53-0.04-1.05-0.08-1.57-0.14l5.49,8.65
			c-6.33-0.35-12.3-2.15-17.37-5.26l-0.65-0.4l-0.65,0.4c-5.07,3.11-11.03,4.91-17.37,5.26l5.47-8.61
			c-0.52,0.05-1.04,0.09-1.56,0.12c-0.51,0.03-1.02,0.07-1.53,0.08L203,57.38h2.27c7.38,0,14.39-1.83,20.33-5.3
			c5.94,3.47,12.95,5.3,20.33,5.3h2.27L241.25,46.4z"/>
		<path class="st0" d="M208.15,43.95c1.17,0,2.32-0.06,3.46-0.14c0.53-0.04,1.05-0.08,1.57-0.14c0.54-0.06,1.08-0.12,1.61-0.2
			c3.75-0.56,7.28-1.58,10.4-3.05l0.53-0.25l0.53,0.25c3.05,1.44,6.48,2.45,10.14,3.02c0.53,0.08,1.07,0.14,1.61,0.21
			c0.52,0.06,1.05,0.11,1.58,0.15c1.22,0.1,2.46,0.16,3.72,0.16v0.01h1.76l-7.89-10.44c-0.56-0.03-1.11-0.07-1.66-0.12
			c-0.58-0.05-1.15-0.12-1.72-0.2l6.18,8.18c-0.69-0.04-1.37-0.11-2.04-0.18c-0.54-0.06-1.08-0.13-1.62-0.22
			c-0.56-0.09-1.12-0.19-1.68-0.31c-3.04-0.62-5.89-1.6-8.47-2.93l-0.57-0.29l-0.57,0.29c-2.58,1.33-5.43,2.31-8.47,2.93
			c-0.55,0.11-1.11,0.22-1.67,0.31c-0.53,0.08-1.07,0.16-1.62,0.22c-0.67,0.08-1.35,0.14-2.04,0.18l6.18-8.18
			c-0.57,0.08-1.14,0.15-1.72,0.2c-0.55,0.05-1.1,0.09-1.65,0.12l-7.89,10.44L208.15,43.95L208.15,43.95z"/>
		<path class="st0" d="M212.05,31.07c1.36,0,2.7-0.08,4.01-0.23c0.59-0.07,1.17-0.15,1.75-0.24c0.62-0.1,1.24-0.22,1.84-0.36
			c0.23-0.05,0.45-0.1,0.67-0.16c0.61-0.15,1.22-0.32,1.8-0.51c0.66-0.21,1.3-0.45,1.93-0.71c0.35-0.14,0.69-0.28,1.03-0.43
			l0.52-0.24l0.52,0.24c0.33,0.15,0.68,0.29,1.03,0.43c0.63,0.26,1.27,0.5,1.93,0.71c0.59,0.19,1.19,0.35,1.8,0.51
			c0.22,0.06,0.45,0.1,0.67,0.16c0.6,0.14,1.22,0.26,1.84,0.36c0.58,0.1,1.16,0.18,1.75,0.24c1.31,0.15,2.65,0.23,4.01,0.23v0.02
			h2.7l-16.25-19.2l-16.25,19.2h2.7V31.07z M236.38,28.49c-1.14-0.09-2.25-0.25-3.33-0.44c-0.62-0.11-1.24-0.23-1.85-0.37
			c-0.68-0.16-1.34-0.36-2-0.57c-0.08-0.03-0.16-0.05-0.24-0.07c-0.67-0.22-1.31-0.47-1.94-0.73c-0.29-0.12-0.6-0.22-0.88-0.35
			l-0.52-0.24l-0.52,0.24c-0.28,0.13-0.59,0.23-0.88,0.35c-0.63,0.26-1.27,0.51-1.94,0.73c-0.08,0.03-0.16,0.05-0.24,0.07
			c-0.65,0.21-1.31,0.41-2,0.57c-0.6,0.14-1.22,0.26-1.85,0.37c-1.09,0.19-2.2,0.35-3.33,0.44l10.77-12.73L236.38,28.49z"/>
	</g>
	<polygon class="st1" points="221.97,12.13 225.61,10.22 229.24,12.13 228.55,8.08 231.49,5.22 227.42,4.63 225.61,0.94 
		223.79,4.63 219.73,5.22 222.67,8.08 	"/>
</g>
<g>
	<path class="st1" d="M40.92,30.32V11.73h-9.39h-9.39v18.59c3.54,0,6.79-1.19,9.39-3.2C34.13,29.13,37.38,30.32,40.92,30.32z
		 M24.49,27.76V14.08h7.04h7.04v13.67c-2.03-0.37-3.94-1.21-5.6-2.5l-1.44-1.11l-1.44,1.11C28.42,26.54,26.51,27.39,24.49,27.76z"/>
	<path class="st1" d="M20.03,30.52v-9.39v-9.39H1.44c0,3.54,1.19,6.79,3.2,9.39c-2,2.6-3.2,5.86-3.2,9.39H20.03z M6.5,19.69
		c-1.29-1.67-2.13-3.57-2.5-5.6h13.67v7.04v7.04H4c0.37-2.03,1.21-3.94,2.5-5.6l1.11-1.44L6.5,19.69z"/>
	<path class="st1" d="M40.82,32.93H22.23v9.39v9.39h18.59c0-3.54-1.19-6.79-3.2-9.39C39.63,39.72,40.82,36.47,40.82,32.93z
		 M38.26,49.36H24.58v-7.04v-7.04h13.67c-0.37,2.03-1.21,3.94-2.5,5.6l-1.11,1.44l1.11,1.44C37.04,45.43,37.89,47.33,38.26,49.36z"
		/>
	<path class="st1" d="M10.73,36.33c-2.6-2-5.86-3.2-9.39-3.2v18.59h9.39h9.39V33.13C16.59,33.13,13.34,34.32,10.73,36.33z
		 M17.78,49.36h-7.04H3.69V35.69c2.03,0.37,3.94,1.21,5.6,2.5l1.44,1.11l1.44-1.11c1.67-1.29,3.57-2.13,5.6-2.5V49.36z"/>
	<polygon class="st1" points="59.33,18.3 63.3,25.15 64.51,25.15 68.55,18.33 68.55,26.43 71.09,26.43 71.07,14.21 68.44,14.21 
		63.97,21.86 59.71,14.21 56.77,14.21 56.77,26.43 59.33,26.43 	"/>
	<path class="st1" d="M76.92,25.78c0.96,0.54,2.05,0.81,3.28,0.81c1.24,0,2.35-0.27,3.31-0.81c0.96-0.54,1.72-1.28,2.27-2.23
		c0.55-0.95,0.82-2.02,0.82-3.23c0-1.23-0.27-2.32-0.82-3.25c-0.55-0.93-1.3-1.66-2.27-2.2c-0.96-0.53-2.07-0.8-3.31-0.8
		c-1.23,0-2.32,0.27-3.28,0.8c-0.96,0.53-1.71,1.27-2.27,2.21c-0.55,0.94-0.83,2.02-0.83,3.24c0,1.21,0.28,2.28,0.83,3.23
		C75.21,24.49,75.97,25.23,76.92,25.78z M77.13,18.27c0.31-0.57,0.74-1.01,1.27-1.31s1.14-0.46,1.83-0.46
		c0.67,0,1.28,0.15,1.82,0.46c0.54,0.31,0.96,0.74,1.27,1.31s0.46,1.25,0.46,2.05c0,0.78-0.15,1.46-0.46,2.04
		c-0.31,0.58-0.73,1.02-1.27,1.33c-0.54,0.31-1.15,0.46-1.84,0.46c-0.67,0-1.28-0.15-1.81-0.46c-0.53-0.3-0.95-0.75-1.27-1.33
		c-0.31-0.58-0.47-1.26-0.47-2.04C76.65,19.53,76.81,18.84,77.13,18.27z"/>
	<path class="st1" d="M91.46,25.78c0.98,0.54,2.1,0.81,3.36,0.81c1.17,0,2.2-0.25,3.09-0.74c0.89-0.5,1.57-1.2,2.03-2.12l-2.15-1.28
		c-0.36,0.58-0.8,1.01-1.31,1.28c-0.52,0.27-1.07,0.41-1.67,0.41c-0.69,0-1.31-0.15-1.86-0.46c-0.55-0.3-0.99-0.74-1.3-1.31
		c-0.31-0.57-0.47-1.25-0.47-2.05c0-0.79,0.16-1.48,0.47-2.05c0.31-0.57,0.75-1.01,1.3-1.31c0.55-0.31,1.17-0.46,1.86-0.46
		c0.6,0,1.16,0.14,1.67,0.41c0.52,0.27,0.95,0.7,1.31,1.28l2.15-1.28c-0.46-0.93-1.14-1.64-2.03-2.12
		c-0.89-0.48-1.92-0.72-3.09-0.72c-1.26,0-2.38,0.27-3.36,0.8c-0.98,0.53-1.75,1.27-2.3,2.21c-0.55,0.94-0.83,2.02-0.83,3.24
		c0,1.21,0.28,2.28,0.83,3.23C89.71,24.49,90.48,25.23,91.46,25.78z"/>
	<polygon class="st1" points="105.2,21.53 107.37,21.53 110.99,26.43 114.29,26.43 109.65,20.08 114,14.21 110.99,14.21 
		107.45,19.15 105.2,19.15 105.2,14.21 102.4,14.21 102.4,26.43 105.2,26.43 	"/>
	<path class="st1" d="M117.93,25.78c0.96,0.54,2.05,0.81,3.28,0.81c1.24,0,2.35-0.27,3.31-0.81c0.96-0.54,1.72-1.28,2.27-2.23
		c0.55-0.95,0.82-2.02,0.82-3.23c0-1.23-0.27-2.32-0.82-3.25c-0.55-0.93-1.3-1.66-2.27-2.2c-0.96-0.53-2.07-0.8-3.31-0.8
		c-1.23,0-2.32,0.27-3.28,0.8c-0.96,0.53-1.71,1.27-2.27,2.21c-0.55,0.94-0.83,2.02-0.83,3.24c0,1.21,0.28,2.28,0.83,3.23
		C116.22,24.49,116.97,25.23,117.93,25.78z M118.13,18.27c0.31-0.57,0.74-1.01,1.27-1.31c0.53-0.31,1.14-0.46,1.83-0.46
		c0.67,0,1.28,0.15,1.82,0.46s0.96,0.74,1.27,1.31c0.31,0.57,0.46,1.25,0.46,2.05c0,0.78-0.15,1.46-0.46,2.04
		c-0.31,0.58-0.73,1.02-1.27,1.33c-0.54,0.31-1.15,0.46-1.84,0.46c-0.67,0-1.28-0.15-1.81-0.46c-0.53-0.3-0.95-0.75-1.27-1.33
		c-0.31-0.58-0.47-1.26-0.47-2.04C117.66,19.53,117.82,18.84,118.13,18.27z"/>
	<path class="st1" d="M140.08,25.52c0.79-0.6,1.19-1.45,1.19-2.53c0-1.04-0.36-1.83-1.07-2.37c-0.31-0.24-0.71-0.42-1.17-0.55
		c0.25-0.11,0.48-0.24,0.69-0.39c0.78-0.56,1.17-1.33,1.17-2.32c0-1.01-0.42-1.78-1.25-2.33c-0.83-0.55-1.97-0.82-3.42-0.82h-5.86
		v12.22h6.1C138.08,26.43,139.29,26.13,140.08,25.52z M133.03,16.29h2.94c0.72,0,1.26,0.12,1.63,0.37c0.37,0.24,0.55,0.62,0.55,1.12
		c0,0.49-0.18,0.87-0.55,1.13s-0.91,0.4-1.63,0.4h-2.94V16.29z M133.03,24.35v-3.13h3.3c0.76,0,1.32,0.13,1.68,0.39
		c0.36,0.26,0.54,0.66,0.54,1.21c0,0.52-0.19,0.9-0.58,1.16c-0.39,0.25-0.96,0.38-1.73,0.38H133.03z"/>
	<path class="st1" d="M146.35,25.78c0.98,0.54,2.1,0.81,3.36,0.81c1.17,0,2.2-0.25,3.09-0.74c0.89-0.5,1.57-1.2,2.03-2.12
		l-2.15-1.28c-0.36,0.58-0.8,1.01-1.31,1.28c-0.52,0.27-1.07,0.41-1.67,0.41c-0.69,0-1.31-0.15-1.86-0.46
		c-0.55-0.3-0.99-0.74-1.3-1.31c-0.31-0.57-0.47-1.25-0.47-2.05c0-0.79,0.16-1.48,0.47-2.05c0.31-0.57,0.75-1.01,1.3-1.31
		c0.55-0.31,1.18-0.46,1.86-0.46c0.6,0,1.16,0.14,1.67,0.41c0.52,0.27,0.95,0.7,1.31,1.28l2.15-1.28c-0.46-0.93-1.14-1.64-2.03-2.12
		c-0.89-0.48-1.92-0.72-3.09-0.72c-1.26,0-2.37,0.27-3.36,0.8c-0.98,0.53-1.75,1.27-2.3,2.21c-0.55,0.94-0.83,2.02-0.83,3.24
		c0,1.21,0.28,2.28,0.83,3.23C144.61,24.49,145.37,25.23,146.35,25.78z"/>
	<polygon class="st1" points="160.1,21.53 162.27,21.53 165.89,26.43 169.19,26.43 164.55,20.08 168.9,14.21 165.89,14.21 
		162.35,19.15 160.1,19.15 160.1,14.21 157.3,14.21 157.3,26.43 160.1,26.43 	"/>
	<polygon class="st1" points="180.35,18.38 180.35,26.43 183.15,26.43 183.15,14.21 180.59,14.21 173.97,22.26 173.97,14.21 
		171.17,14.21 171.17,26.43 173.75,26.43 	"/>
	<path class="st1" d="M189.02,25.78c0.99,0.54,2.16,0.81,3.49,0.81c1.05,0,1.98-0.17,2.79-0.51c0.82-0.34,1.49-0.83,2.03-1.48
		l-1.5-1.76c-0.42,0.46-0.9,0.79-1.44,1.01c-0.54,0.21-1.14,0.32-1.82,0.32c-0.78,0-1.47-0.15-2.06-0.46s-1.06-0.74-1.39-1.3
		c-0.21-0.35-0.34-0.75-0.42-1.17h9.4c0.01-0.14,0.03-0.28,0.03-0.43c0.01-0.15,0.01-0.29,0.01-0.41c0-1.28-0.26-2.39-0.79-3.34
		c-0.52-0.95-1.24-1.68-2.15-2.2c-0.91-0.52-1.95-0.78-3.12-0.78c-1.2,0-2.26,0.27-3.2,0.8c-0.93,0.53-1.67,1.27-2.2,2.21
		c-0.53,0.94-0.8,2.02-0.8,3.24c0,1.21,0.27,2.28,0.82,3.23C187.25,24.49,188.02,25.23,189.02,25.78z M189.07,18.09
		c0.29-0.54,0.7-0.96,1.21-1.27c0.52-0.31,1.12-0.46,1.81-0.46c0.67,0,1.27,0.15,1.78,0.46s0.92,0.72,1.22,1.26
		c0.21,0.38,0.34,0.8,0.39,1.26h-6.81C188.74,18.88,188.87,18.46,189.07,18.09z"/>
	<polygon class="st1" points="59.57,44.33 61.74,44.33 65.37,49.22 68.66,49.22 64.02,42.88 68.37,37.01 65.37,37.01 61.82,41.95 
		59.57,41.95 59.57,37.01 56.77,37.01 56.77,49.22 59.57,49.22 	"/>
	<path class="st1" d="M81.17,40.16c0-1.01-0.41-1.78-1.25-2.33c-0.83-0.55-1.97-0.82-3.42-0.82h-5.86v12.22h6.1
		c1.62,0,2.82-0.3,3.61-0.9s1.19-1.45,1.19-2.53c0-1.04-0.36-1.83-1.07-2.37c-0.31-0.24-0.71-0.42-1.17-0.55
		c0.25-0.11,0.48-0.24,0.69-0.39C80.78,41.93,81.17,41.16,81.17,40.16z M73.31,39.09h2.94c0.72,0,1.26,0.12,1.63,0.37
		c0.37,0.24,0.55,0.62,0.55,1.12c0,0.49-0.18,0.87-0.55,1.13c-0.37,0.27-0.91,0.4-1.63,0.4h-2.94V39.09z M78.25,46.76
		c-0.39,0.25-0.96,0.38-1.73,0.38h-3.21v-3.13h3.3c0.76,0,1.32,0.13,1.68,0.39c0.36,0.26,0.54,0.66,0.54,1.21
		C78.83,46.13,78.64,46.51,78.25,46.76z"/>
	<path class="st1" d="M88.55,42.09c-1.21,0-2.18,0.16-2.92,0.48c-0.73,0.32-1.26,0.75-1.58,1.3c-0.32,0.55-0.48,1.17-0.48,1.85
		c0,0.7,0.18,1.33,0.55,1.89c0.37,0.56,0.89,0.99,1.56,1.3c0.67,0.31,1.46,0.47,2.36,0.47c1.06,0,1.94-0.2,2.64-0.59
		c0.48-0.27,0.86-0.63,1.13-1.06v1.5h2.65v-7.16c0-1.77-0.48-3.08-1.43-3.92c-0.95-0.85-2.29-1.27-4.03-1.27
		c-0.96,0-1.88,0.13-2.77,0.38c-0.89,0.25-1.66,0.63-2.3,1.13l1.1,2.08c0.45-0.38,1-0.68,1.65-0.89c0.65-0.21,1.31-0.32,1.99-0.32
		c1,0,1.75,0.23,2.24,0.7c0.49,0.47,0.74,1.12,0.74,1.96v0.18H88.55z M90.47,46.82c-0.55,0.32-1.16,0.48-1.85,0.48
		c-0.72,0-1.28-0.15-1.68-0.46c-0.4-0.31-0.61-0.72-0.61-1.24c0-0.46,0.16-0.84,0.49-1.16c0.33-0.31,0.97-0.47,1.93-0.47h2.9v1.42
		C91.41,46.03,91.01,46.5,90.47,46.82z"/>
	<path class="st1" d="M100.74,47.71c0.34,0.4,0.73,0.73,1.18,0.99c0.8,0.46,1.69,0.69,2.66,0.69c1.18,0,2.22-0.26,3.13-0.78
		c0.91-0.52,1.62-1.25,2.15-2.18c0.53-0.94,0.8-2.04,0.8-3.31c0-1.27-0.27-2.36-0.8-3.29c-0.53-0.93-1.25-1.65-2.15-2.17
		c-0.91-0.52-1.95-0.78-3.13-0.78c-1.02,0-1.92,0.23-2.72,0.68c-0.48,0.27-0.9,0.65-1.26,1.09v-1.63h-2.67v16.65h2.81V47.71z
		 M101.16,41.07c0.31-0.57,0.74-1.01,1.28-1.31c0.54-0.31,1.14-0.46,1.82-0.46c0.67,0,1.28,0.15,1.81,0.46
		c0.53,0.31,0.95,0.74,1.27,1.31c0.31,0.57,0.47,1.25,0.47,2.05c0,0.78-0.16,1.46-0.47,2.04c-0.31,0.58-0.74,1.02-1.27,1.33
		c-0.53,0.31-1.13,0.46-1.81,0.46c-0.67,0-1.28-0.15-1.82-0.46c-0.54-0.3-0.96-0.75-1.28-1.33c-0.31-0.58-0.47-1.26-0.47-2.04
		C100.69,42.32,100.85,41.64,101.16,41.07z"/>
	<polygon class="st1" points="118.29,49.22 118.29,39.43 122.48,39.43 122.48,37.01 111.26,37.01 111.26,39.43 115.48,39.43 
		115.48,49.22 	"/>
	<path class="st1" d="M123.92,38.38l1.1,2.08c0.45-0.38,1-0.68,1.65-0.89c0.65-0.21,1.31-0.32,1.99-0.32c1,0,1.75,0.23,2.24,0.7
		c0.49,0.47,0.74,1.12,0.74,1.96v0.18h-3.1c-1.21,0-2.18,0.16-2.92,0.48c-0.73,0.32-1.26,0.75-1.58,1.3
		c-0.32,0.55-0.48,1.17-0.48,1.85c0,0.7,0.18,1.33,0.55,1.89c0.37,0.56,0.89,0.99,1.56,1.3c0.67,0.31,1.46,0.47,2.36,0.47
		c1.06,0,1.94-0.2,2.64-0.59c0.48-0.27,0.86-0.63,1.13-1.06v1.5h2.65v-7.16c0-1.77-0.48-3.08-1.43-3.92
		c-0.95-0.85-2.29-1.27-4.03-1.27c-0.96,0-1.88,0.13-2.77,0.38C125.33,37.5,124.56,37.88,123.92,38.38z M130.46,46.82
		c-0.55,0.32-1.16,0.48-1.85,0.48c-0.72,0-1.28-0.15-1.68-0.46c-0.4-0.31-0.61-0.72-0.61-1.24c0-0.46,0.16-0.84,0.49-1.16
		c0.33-0.31,0.97-0.47,1.93-0.47h2.9v1.42C131.4,46.03,131.01,46.5,130.46,46.82z"/>
	<path class="st1" d="M148.79,49.22V37.01h-9.7l-0.2,4.71c-0.03,0.63-0.07,1.25-0.12,1.87c-0.05,0.62-0.14,1.17-0.27,1.67
		c-0.13,0.5-0.32,0.89-0.57,1.18c-0.25,0.29-0.61,0.43-1.08,0.43c-0.07,0-0.16-0.01-0.25-0.02c-0.09-0.02-0.19-0.03-0.29-0.05
		l-0.13,2.4c0.28,0.08,0.56,0.14,0.82,0.18c0.26,0.05,0.5,0.07,0.73,0.07c0.7,0,1.28-0.19,1.74-0.57c0.46-0.38,0.81-0.91,1.08-1.6
		c0.26-0.69,0.46-1.49,0.58-2.41c0.13-0.92,0.21-1.93,0.26-3.01l0.12-2.42h4.48v9.79H148.79z"/>
	<path class="st1" d="M152.56,37.01v12.22l5.43,0.02c1.63,0.01,2.89-0.35,3.78-1.09c0.89-0.74,1.33-1.77,1.33-3.1
		c0-1.28-0.4-2.27-1.2-2.97s-1.97-1.05-3.51-1.05l-3.03-0.02v-4H152.56z M157.74,43c0.84,0.02,1.47,0.18,1.9,0.49
		c0.43,0.31,0.64,0.82,0.64,1.52c0,0.7-0.22,1.24-0.65,1.6c-0.43,0.37-1.06,0.54-1.89,0.53l-2.38-0.02v-4.14L157.74,43z"/>
	<rect x="164.66" y="37.01" class="st1" width="2.81" height="12.22"/>
</g>
</svg>
